<svg width="42" height="43" viewBox="0 0 42 43" fill="none" xmlns="http://www.w3.org/2000/svg">
<path fill-rule="evenodd" clip-rule="evenodd" d="M30.625 35.8333C31.7853 35.8333 32.8981 35.3614 33.7186 34.5214C34.5391 33.6814 35 32.5421 35 31.3541C35 30.1662 34.5391 29.0269 33.7186 28.1869C32.8981 27.3469 31.7853 26.875 30.625 26.875C29.4647 26.875 28.3519 27.3469 27.5314 28.1869C26.7109 29.0269 26.25 30.1662 26.25 31.3541C26.25 32.5421 26.7109 33.6814 27.5314 34.5214C28.3519 35.3614 29.4647 35.8333 30.625 35.8333ZM30.625 37.625C32.2495 37.625 33.8074 36.9643 34.956 35.7883C36.1047 34.6123 36.75 33.0173 36.75 31.3541C36.75 29.691 36.1047 28.096 34.956 26.92C33.8074 25.744 32.2495 25.0833 30.625 25.0833C29.0006 25.0833 27.4426 25.744 26.294 26.92C25.1453 28.096 24.5 29.691 24.5 31.3541C24.5 33.0173 25.1453 34.6123 26.294 35.7883C27.4426 36.9643 29.0006 37.625 30.625 37.625Z" fill="#1D3218"/>
<path fill-rule="evenodd" clip-rule="evenodd" d="M30.625 28.2188C30.8571 28.2188 31.0796 28.3131 31.2437 28.4811C31.4078 28.6491 31.5 28.877 31.5 29.1146V30.9833L32.1186 31.6166C32.278 31.7856 32.3662 32.0119 32.3642 32.2468C32.3622 32.4817 32.2702 32.7063 32.108 32.8724C31.9457 33.0385 31.7263 33.1328 31.4969 33.1348C31.2674 33.1368 31.0464 33.0465 30.8814 32.8834L29.75 31.725V29.1146C29.75 28.877 29.8422 28.6491 30.0063 28.4811C30.1704 28.3131 30.3929 28.2188 30.625 28.2188Z" fill="#1D3218"/>
<path fill-rule="evenodd" clip-rule="evenodd" d="M12.25 20.6042H10.5V22.3958H12.25V20.6042ZM10.5 18.8125C10.0359 18.8125 9.59075 19.0013 9.26256 19.3373C8.93437 19.6733 8.75 20.129 8.75 20.6042V22.3958C8.75 22.871 8.93437 23.3267 9.26256 23.6627C9.59075 23.9987 10.0359 24.1875 10.5 24.1875H12.25C12.7141 24.1875 13.1592 23.9987 13.4874 23.6627C13.8156 23.3267 14 22.871 14 22.3958V20.6042C14 20.129 13.8156 19.6733 13.4874 19.3373C13.1592 19.0013 12.7141 18.8125 12.25 18.8125H10.5Z" fill="#1D3218"/>
<path fill-rule="evenodd" clip-rule="evenodd" d="M19.25 20.6042H17.5V22.3958H19.25V20.6042ZM17.5 18.8125C17.0359 18.8125 16.5908 19.0013 16.2626 19.3373C15.9344 19.6733 15.75 20.129 15.75 20.6042V22.3958C15.75 22.871 15.9344 23.3267 16.2626 23.6627C16.5908 23.9987 17.0359 24.1875 17.5 24.1875H19.25C19.7141 24.1875 20.1592 23.9987 20.4874 23.6627C20.8156 23.3267 21 22.871 21 22.3958V20.6042C21 20.129 20.8156 19.6733 20.4874 19.3373C20.1592 19.0013 19.7141 18.8125 19.25 18.8125H17.5Z" fill="#1D3218"/>
<path fill-rule="evenodd" clip-rule="evenodd" d="M26.25 20.6042H24.5V22.3958H26.25V20.6042ZM24.5 18.8125C24.0359 18.8125 23.5908 19.0013 23.2626 19.3373C22.9344 19.6733 22.75 20.129 22.75 20.6042V22.3958C22.75 22.871 22.9344 23.3267 23.2626 23.6627C23.5908 23.9987 24.0359 24.1875 24.5 24.1875H26.25C26.7141 24.1875 27.1592 23.9987 27.4874 23.6627C27.8156 23.3267 28 22.871 28 22.3958V20.6042C28 20.129 27.8156 19.6733 27.4874 19.3373C27.1592 19.0013 26.7141 18.8125 26.25 18.8125H24.5Z" fill="#1D3218"/>
<path fill-rule="evenodd" clip-rule="evenodd" d="M12.25 27.7709H10.5V29.5625H12.25V27.7709ZM10.5 25.9792C10.0359 25.9792 9.59075 26.168 9.26256 26.504C8.93437 26.84 8.75 27.2957 8.75 27.7709V29.5625C8.75 30.0377 8.93437 30.4934 9.26256 30.8294C9.59075 31.1654 10.0359 31.3542 10.5 31.3542H12.25C12.7141 31.3542 13.1592 31.1654 13.4874 30.8294C13.8156 30.4934 14 30.0377 14 29.5625V27.7709C14 27.2957 13.8156 26.84 13.4874 26.504C13.1592 26.168 12.7141 25.9792 12.25 25.9792H10.5Z" fill="#1D3218"/>
<path fill-rule="evenodd" clip-rule="evenodd" d="M19.25 27.7709H17.5V29.5625H19.25V27.7709ZM17.5 25.9792C17.0359 25.9792 16.5908 26.168 16.2626 26.504C15.9344 26.84 15.75 27.2957 15.75 27.7709V29.5625C15.75 30.0377 15.9344 30.4934 16.2626 30.8294C16.5908 31.1654 17.0359 31.3542 17.5 31.3542H19.25C19.7141 31.3542 20.1592 31.1654 20.4874 30.8294C20.8156 30.4934 21 30.0377 21 29.5625V27.7709C21 27.2957 20.8156 26.84 20.4874 26.504C20.1592 26.168 19.7141 25.9792 19.25 25.9792H17.5Z" fill="#1D3218"/>
<path fill-rule="evenodd" clip-rule="evenodd" d="M7 10.75C7 10.5124 7.09219 10.2846 7.25628 10.1166C7.42038 9.94855 7.64294 9.85417 7.875 9.85417H12.25V8.0625H7.875C7.17881 8.0625 6.51113 8.34565 6.01884 8.84965C5.52656 9.35365 5.25 10.0372 5.25 10.75V32.25C5.25 32.9628 5.52656 33.6463 6.01884 34.1503C6.51113 34.6544 7.17881 34.9375 7.875 34.9375H25.5981C25.225 34.3903 24.9399 33.7854 24.7537 33.1458H7.875C7.64294 33.1458 7.42038 33.0515 7.25628 32.8834C7.09219 32.7154 7 32.4876 7 32.25V10.75ZM29.75 25.146C30.3304 25.061 30.9196 25.061 31.5 25.146V10.75C31.5 10.0372 31.2234 9.35365 30.7312 8.84965C30.2389 8.34565 29.5712 8.0625 28.875 8.0625H26.25V9.85417H28.875C29.1071 9.85417 29.3296 9.94855 29.4937 10.1166C29.6578 10.2846 29.75 10.5124 29.75 10.75V25.146ZM14 9.85417H23.2426V8.0625H14V9.85417Z" fill="#1D3218"/>
<path fill-rule="evenodd" clip-rule="evenodd" d="M31.5 16.125H7V14.3333H31.5V16.125Z" fill="#1D3218"/>
<path d="M10.5 6.27083C10.5 6.03324 10.5922 5.80539 10.7563 5.63738C10.9204 5.46938 11.1429 5.375 11.375 5.375C11.6071 5.375 11.8296 5.46938 11.9937 5.63738C12.1578 5.80539 12.25 6.03324 12.25 6.27083V10.75C12.25 10.9876 12.1578 11.2154 11.9937 11.3835C11.8296 11.5515 11.6071 11.6458 11.375 11.6458C11.1429 11.6458 10.9204 11.5515 10.7563 11.3835C10.5922 11.2154 10.5 10.9876 10.5 10.75V6.27083Z" fill="#1D3218"/>
<path d="M22.75 6.27083C22.75 6.03324 22.8422 5.80539 23.0063 5.63738C23.1704 5.46938 23.3929 5.375 23.625 5.375C23.8571 5.375 24.0796 5.46938 24.2437 5.63738C24.4078 5.80539 24.5 6.03324 24.5 6.27083V10.75C24.5 10.9876 24.4078 11.2154 24.2437 11.3835C24.0796 11.5515 23.8571 11.6458 23.625 11.6458C23.3929 11.6458 23.1704 11.5515 23.0063 11.3835C22.8422 11.2154 22.75 10.9876 22.75 10.75V6.27083Z" fill="#1D3218"/>
</svg>
