<svg width="47" height="47" viewBox="0 0 47 47" fill="none" xmlns="http://www.w3.org/2000/svg">
<path d="M30.8438 28.3959C30.4542 28.3959 30.0806 28.5506 29.8052 28.826C29.5297 29.1015 29.375 29.4751 29.375 29.8646C29.375 30.2541 29.5297 30.6277 29.8052 30.9032C30.0806 31.1786 30.4542 31.3334 30.8438 31.3334H35.7396C36.1291 31.3334 36.5027 31.1786 36.7782 30.9032C37.0536 30.6277 37.2083 30.2541 37.2083 29.8646C37.2083 29.4751 37.0536 29.1015 36.7782 28.826C36.5027 28.5506 36.1291 28.3959 35.7396 28.3959H30.8438ZM9.30209 9.79169C7.87379 9.79169 6.50399 10.3591 5.49402 11.369C4.48406 12.379 3.91667 13.7488 3.91667 15.1771V31.8229C3.91667 33.2512 4.48406 34.621 5.49402 35.631C6.50399 36.641 7.87379 37.2084 9.30209 37.2084H37.6979C39.1262 37.2084 40.496 36.641 41.506 35.631C42.5159 34.621 43.0833 33.2512 43.0833 31.8229V15.1771C43.0833 13.7488 42.5159 12.379 41.506 11.369C40.496 10.3591 39.1262 9.79169 37.6979 9.79169H9.30209ZM6.85417 31.8229V21.5417H40.1458V31.8229C40.1458 33.1742 39.0492 34.2709 37.6979 34.2709H9.30209C7.95084 34.2709 6.85417 33.1742 6.85417 31.8229ZM6.85417 18.6042V15.1771C6.85417 13.8259 7.95084 12.7292 9.30209 12.7292H37.6979C39.0492 12.7292 40.1458 13.8259 40.1458 15.1771V18.6042H6.85417Z" fill="#1D3218"/>
</svg>
