<svg width="40" height="32" viewBox="0 -10 40 54" fill="none" xmlns="http://www.w3.org/2000/svg">
<path d="M17.5 22.5833C17.5 23.3472 17.2949 23.9965 16.8848 24.5312C16.4746 25.066 15.9831 25.3333 15.4102 25.3333H7.08984C6.51693 25.3333 6.02539 25.066 5.61523 24.5312C5.20508 23.9965 5 23.3472 5 22.5833C5 21.8333 5.04883 21.1354 5.14648 20.4896C5.24414 19.8438 5.40365 19.2188 5.625 18.6146C5.84635 18.0104 6.17839 17.5347 6.62109 17.1875C7.0638 16.8403 7.59115 16.6667 8.20312 16.6667C9.03646 17.5556 10.0521 18 11.25 18C12.4479 18 13.4635 17.5556 14.2969 16.6667C14.9089 16.6667 15.4362 16.8403 15.8789 17.1875C16.3216 17.5347 16.6536 18.0104 16.875 18.6146C17.0964 19.2188 17.2559 19.8438 17.3535 20.4896C17.4512 21.1354 17.5 21.8333 17.5 22.5833ZM15 13.3333C15 14.4444 14.6354 15.3889 13.9062 16.1667C13.1771 16.9444 12.2917 17.3333 11.25 17.3333C10.2083 17.3333 9.32292 16.9444 8.59375 16.1667C7.86458 15.3889 7.5 14.4444 7.5 13.3333C7.5 12.2222 7.86458 11.2778 8.59375 10.5C9.32292 9.72222 10.2083 9.33333 11.25 9.33333C12.2917 9.33333 13.1771 9.72222 13.9062 10.5C14.6354 11.2778 15 12.2222 15 13.3333ZM35 22V23.3333C35 23.5278 34.9414 23.6875 34.8242 23.8125C34.707 23.9375 34.5573 24 34.375 24H20.625C20.4427 24 20.293 23.9375 20.1758 23.8125C20.0586 23.6875 20 23.5278 20 23.3333V22C20 21.8056 20.0586 21.6458 20.1758 21.5208C20.293 21.3958 20.4427 21.3333 20.625 21.3333H34.375C34.5573 21.3333 34.707 21.3958 34.8242 21.5208C34.9414 21.6458 35 21.8056 35 22ZM27.5 16.6667V18C27.5 18.1944 27.4414 18.3542 27.3242 18.4792C27.207 18.6042 27.0573 18.6667 26.875 18.6667H20.625C20.4427 18.6667 20.293 18.6042 20.1758 18.4792C20.0586 18.3542 20 18.1944 20 18V16.6667C20 16.4722 20.0586 16.3125 20.1758 16.1875C20.293 16.0625 20.4427 16 20.625 16H26.875C27.0573 16 27.207 16.0625 27.3242 16.1875C27.4414 16.3125 27.5 16.4722 27.5 16.6667ZM35 16.6667V18C35 18.1944 34.9414 18.3542 34.8242 18.4792C34.707 18.6042 34.5573 18.6667 34.375 18.6667H30.625C30.4427 18.6667 30.293 18.6042 30.1758 18.4792C30.0586 18.3542 30 18.1944 30 18V16.6667C30 16.4722 30.0586 16.3125 30.1758 16.1875C30.293 16.0625 30.4427 16 30.625 16H34.375C34.5573 16 34.707 16.0625 34.8242 16.1875C34.9414 16.3125 35 16.4722 35 16.6667ZM35 11.3333V12.6667C35 12.8611 34.9414 13.0208 34.8242 13.1458C34.707 13.2708 34.5573 13.3333 34.375 13.3333H20.625C20.4427 13.3333 20.293 13.2708 20.1758 13.1458C20.0586 13.0208 20 12.8611 20 12.6667V11.3333C20 11.1389 20.0586 10.9792 20.1758 10.8542C20.293 10.7292 20.4427 10.6667 20.625 10.6667H34.375C34.5573 10.6667 34.707 10.7292 34.8242 10.8542C34.9414 10.9792 35 11.1389 35 11.3333ZM37.5 28.6667V5.33333H2.5V28.6667C2.5 28.8472 2.56185 29.0035 2.68555 29.1354C2.80924 29.2674 2.95573 29.3333 3.125 29.3333H36.875C37.0443 29.3333 37.1908 29.2674 37.3145 29.1354C37.4382 29.0035 37.5 28.8472 37.5 28.6667ZM40 3.33333V28.6667C40 29.5833 39.694 30.3681 39.082 31.0208C38.4701 31.6736 37.7344 32 36.875 32H3.125C2.26562 32 1.52995 31.6736 0.917969 31.0208C0.30599 30.3681 0 29.5833 0 28.6667V3.33333C0 2.41667 0.30599 1.63194 0.917969 0.979167C1.52995 0.326389 2.26562 0 3.125 0H36.875C37.7344 0 38.4701 0.326389 39.082 0.979167C39.694 1.63194 40 2.41667 40 3.33333Z" fill="#1D3218"/>
</svg>
