<svg width="57" height="52" viewBox="0 0 57 52" fill="none" xmlns="http://www.w3.org/2000/svg">
<path d="M46.1667 34.6667H52.6667V27.8417C52.6682 27.3261 52.4857 26.8268 52.1521 26.4336C51.8185 26.0405 51.3557 25.7792 50.8467 25.6967L39.6667 23.8333L33.8167 16.0333C33.6149 15.7642 33.3532 15.5458 33.0523 15.3954C32.7515 15.245 32.4197 15.1667 32.0833 15.1667H16.3533C15.5458 15.161 14.7527 15.3812 14.0636 15.8023C13.3745 16.2235 12.8167 16.8288 12.4533 17.55L10.72 21.0817C9.81032 22.89 9.33549 24.8858 9.33334 26.91V34.6667H13.6667M35.3333 34.6667H24.5H35.3333Z" stroke="#1D3218" stroke-width="3" stroke-linecap="round" stroke-linejoin="round"/>
<path d="M19.0834 41.1666C22.0749 41.1666 24.5 38.7415 24.5 35.75C24.5 32.7584 22.0749 30.3333 19.0834 30.3333C16.0918 30.3333 13.6667 32.7584 13.6667 35.75C13.6667 38.7415 16.0918 41.1666 19.0834 41.1666Z" stroke="#1D3218" stroke-width="3" stroke-linecap="round" stroke-linejoin="round"/>
<path d="M40.75 41.1666C43.7416 41.1666 46.1667 38.7415 46.1667 35.75C46.1667 32.7584 43.7416 30.3333 40.75 30.3333C37.7585 30.3333 35.3333 32.7584 35.3333 35.75C35.3333 38.7415 37.7585 41.1666 40.75 41.1666Z" stroke="#1D3218" stroke-width="3" stroke-linecap="round" stroke-linejoin="round"/>
<path d="M1 18H5" stroke="#1D3218" stroke-width="2"/>
<path d="M0 25H4" stroke="#1D3218" stroke-width="2"/>
<path d="M1 32H5" stroke="#1D3218" stroke-width="2"/>
</svg>
