<svg width="32" height="32" viewBox="0 -5 31 44" fill="none" xmlns="http://www.w3.org/2000/svg">
<path d="M10.6667 18.6667C10.6667 18.929 10.615 19.1887 10.5146 19.431C10.4143 19.6733 10.2671 19.8935 10.0817 20.079C9.89619 20.2645 9.67601 20.4116 9.43368 20.512C9.19135 20.6123 8.93163 20.664 8.66933 20.664C8.40704 20.664 8.14731 20.6123 7.90499 20.512C7.66266 20.4116 7.44247 20.2645 7.25701 20.079C7.07154 19.8935 6.92441 19.6733 6.82404 19.431C6.72366 19.1887 6.672 18.929 6.672 18.6667C6.672 18.1369 6.88243 17.6289 7.25701 17.2543C7.63158 16.8798 8.13961 16.6693 8.66933 16.6693C9.19906 16.6693 9.70709 16.8798 10.0817 17.2543C10.4562 17.6289 10.6667 18.1369 10.6667 18.6667ZM23.3307 20.664C23.593 20.664 23.8527 20.6123 24.095 20.512C24.3373 20.4116 24.5575 20.2645 24.743 20.079C24.9285 19.8935 25.0756 19.6733 25.176 19.431C25.2763 19.1887 25.328 18.929 25.328 18.6667C25.328 18.4044 25.2763 18.1446 25.176 17.9023C25.0756 17.66 24.9285 17.4398 24.743 17.2543C24.5575 17.0689 24.3373 16.9217 24.095 16.8214C23.8527 16.721 23.593 16.6693 23.3307 16.6693C22.8009 16.6693 22.2929 16.8798 21.9183 17.2543C21.5438 17.6289 21.3333 18.1369 21.3333 18.6667C21.3333 19.1964 21.5438 19.7044 21.9183 20.079C22.2929 20.4536 22.8009 20.664 23.3307 20.664ZM2.75733 10.864L2.784 10.6667H1.33333C0.979711 10.6667 0.640573 10.5262 0.390525 10.2761C0.140476 10.0261 4.36805e-08 9.68696 4.36805e-08 9.33333C4.36805e-08 8.97971 0.140476 8.64057 0.390525 8.39052C0.640573 8.14048 0.979711 8 1.33333 8H3.128L3.56 4.65067C3.72601 3.36442 4.35501 2.18273 5.3293 1.32673C6.30359 0.470722 7.55642 -0.000939894 8.85333 1.4062e-06H23.1467C24.4443 -4.19264e-05 25.6975 0.473035 26.6714 1.33061C27.6453 2.18819 28.2732 3.37142 28.4373 4.65867L28.8613 8H30.6667C31.0203 8 31.3594 8.14048 31.6095 8.39052C31.8595 8.64057 32 8.97971 32 9.33333C32 9.68696 31.8595 10.0261 31.6095 10.2761C31.3594 10.5262 31.0203 10.6667 30.6667 10.6667H29.2027L29.2293 10.8587C30.0346 11.1187 30.7366 11.6275 31.2345 12.3117C31.7323 12.996 32.0003 13.8205 32 14.6667V22.6667C32 23.7275 31.5786 24.745 30.8284 25.4951C30.0783 26.2452 29.0609 26.6667 28 26.6667H27.992V30C27.992 30.5304 27.7813 31.0391 27.4062 31.4142C27.0311 31.7893 26.5224 32 25.992 32C25.4616 32 24.9529 31.7893 24.5778 31.4142C24.2027 31.0391 23.992 30.5304 23.992 30V26.6667H8V30C8 30.5304 7.78929 31.0391 7.41421 31.4142C7.03914 31.7893 6.53043 32 6 32C5.46957 32 4.96086 31.7893 4.58579 31.4142C4.21071 31.0391 4 30.5304 4 30V26.6667C2.93913 26.6667 1.92172 26.2452 1.17157 25.4951C0.421428 24.745 4.36805e-08 23.7275 4.36805e-08 22.6667V14.6667C-0.000124595 13.823 0.266488 13.001 0.76172 12.318C1.25695 11.635 1.95544 11.1261 2.75733 10.864ZM6.20533 4.992L5.472 10.6667H26.5147L25.7893 4.99467C25.707 4.35174 25.3933 3.76081 24.907 3.33235C24.4206 2.9039 23.7948 2.66725 23.1467 2.66667H8.85333C8.20511 2.66652 7.57902 2.9025 7.09215 3.33047C6.60528 3.75844 6.29097 4.3491 6.208 4.992H6.20533ZM28 24C28.3536 24 28.6928 23.8595 28.9428 23.6095C29.1929 23.3594 29.3333 23.0203 29.3333 22.6667V14.6667C29.3333 14.313 29.1929 13.9739 28.9428 13.7239C28.6928 13.4738 28.3536 13.3333 28 13.3333H4C3.64638 13.3333 3.30724 13.4738 3.05719 13.7239C2.80714 13.9739 2.66667 14.313 2.66667 14.6667V22.6667C2.66667 23.0203 2.80714 23.3594 3.05719 23.6095C3.30724 23.8595 3.64638 24 4 24H28Z" fill="#1D3218"/>
</svg>
