<svg width="58" height="68" viewBox="0 0 58 68" fill="none" xmlns="http://www.w3.org/2000/svg">
<path d="M51.7857 5H6.21429C2.78348 5 0 7.83147 0 11.3214V57.6786C0 61.1685 2.78348 64 6.21429 64H51.7857C55.2165 64 58 61.1685 58 57.6786V11.3214C58 7.83147 55.2165 5 51.7857 5ZM45.4549 25.9134C45.4808 26.2821 45.4808 26.6641 45.4808 27.0328C45.4808 38.4509 36.9362 51.6074 21.3228 51.6074C16.5067 51.6074 12.0402 50.185 8.28571 47.7355C8.97188 47.8145 9.63214 47.8408 10.3313 47.8408C14.3058 47.8408 17.9567 46.4712 20.8696 44.1533C17.1411 44.0743 14.008 41.5853 12.9335 38.1612C14.2411 38.3587 15.4192 38.3587 16.7656 38.0031C12.8817 37.1998 9.96875 33.723 9.96875 29.5219V29.4165C11.0951 30.0618 12.4156 30.4569 13.8009 30.5096C12.6363 29.7216 11.6815 28.6525 11.0219 27.3978C10.3623 26.1431 10.0182 24.7418 10.0205 23.319C10.0205 21.7123 10.4348 20.2373 11.1728 18.9598C15.3545 24.2013 21.6335 27.6254 28.6763 27.9942C27.4723 22.1337 31.7835 17.3795 36.9621 17.3795C39.4089 17.3795 41.6098 18.4199 43.1634 20.1056C45.0795 19.7368 46.9179 19.0125 48.5491 18.0248C47.9147 20.0266 46.5812 21.7123 44.8205 22.779C46.5295 22.5946 48.1866 22.1074 49.7143 21.4357C48.5621 23.1609 47.1121 24.6886 45.4549 25.9134Z" fill="#1D3218"/>
</svg>
