<svg width="61" height="63" viewBox="0 0 61 63" fill="none" xmlns="http://www.w3.org/2000/svg">
<path d="M12.6435 32.5C12.6435 42.2483 20.4155 50.1572 30 50.1572C39.583 50.1572 47.358 42.2498 47.358 32.5C47.358 30.966 47.4 29.55 47.4 28.075H51.75V50.2C51.75 53.1205 50.271 54.625 47.4 54.625H11.15C8.279 54.625 6.8 53.1205 6.8 50.2V28.075H12.6C12.6 29.55 12.6435 30.966 12.6435 32.5ZM1 10.6405V54.3595C1 59.3288 3.6245 62 8.511 62H51.489C56.3741 62 59 59.3288 59 54.3595V10.6405C59 5.67122 56.3741 3 51.489 3H8.511C3.6245 3 1 5.67122 1 10.6405ZM18.487 32.5C18.487 26.0247 23.6345 20.79 30 20.79C31.5121 20.7886 33.0096 21.0906 34.4069 21.6786C35.8041 22.2666 37.0737 23.1291 38.1429 24.2167C39.2121 25.3044 40.06 26.5958 40.638 28.0172C41.216 29.4385 41.5129 30.9618 41.5116 32.5C41.5131 34.0382 41.2164 35.5616 40.6384 36.9831C40.0604 38.4045 39.2126 39.696 38.1433 40.7837C37.0741 41.8714 35.8044 42.7339 34.4071 43.3218C33.0098 43.9097 31.5121 44.2116 30 44.21C28.4878 44.2116 26.9901 43.9098 25.5927 43.3218C24.1953 42.7339 22.9256 41.8715 21.8562 40.7838C20.7868 39.6961 19.9388 38.4046 19.3607 36.9832C18.7826 35.5617 18.4857 34.0383 18.487 32.5ZM43.05 12.5875C43.05 11.3632 44.0215 10.375 45.225 10.375H49.575C50.7785 10.375 51.75 11.3632 51.75 12.5875V17.0125C51.75 18.2368 50.7785 19.225 49.575 19.225H45.225C44.0215 19.225 43.05 18.2368 43.05 17.0125V12.5875Z" fill="#1D3218"/>
</svg>
