<svg width="19" height="19" viewBox="0 0 19 19" fill="none" xmlns="http://www.w3.org/2000/svg">
<path fill-rule="evenodd" clip-rule="evenodd" d="M17.8125 2.375C17.8125 2.06006 17.6874 1.75801 17.4647 1.53531C17.242 1.31261 16.9399 1.1875 16.625 1.1875H2.375C2.06006 1.1875 1.75801 1.31261 1.53531 1.53531C1.31261 1.75801 1.1875 2.06006 1.1875 2.375V16.625C1.1875 16.9399 1.31261 17.242 1.53531 17.4647C1.75801 17.6874 2.06006 17.8125 2.375 17.8125H16.625C16.9399 17.8125 17.242 17.6874 17.4647 17.4647C17.6874 17.242 17.8125 16.9399 17.8125 16.625V2.375ZM0 2.375C0 1.74511 0.250223 1.14102 0.695621 0.695621C1.14102 0.250223 1.74511 0 2.375 0L16.625 0C17.2549 0 17.859 0.250223 18.3044 0.695621C18.7498 1.14102 19 1.74511 19 2.375V16.625C19 17.2549 18.7498 17.859 18.3044 18.3044C17.859 18.7498 17.2549 19 16.625 19H2.375C1.74511 19 1.14102 18.7498 0.695621 18.3044C0.250223 17.859 0 17.2549 0 16.625V2.375ZM5.34375 8.90625C5.18628 8.90625 5.03525 8.96881 4.92391 9.08016C4.81256 9.19151 4.75 9.34253 4.75 9.5C4.75 9.65747 4.81256 9.8085 4.92391 9.91985C5.03525 10.0312 5.18628 10.0938 5.34375 10.0938H12.2229L9.67338 12.6421C9.61817 12.6973 9.57438 12.7629 9.5445 12.835C9.51463 12.9071 9.49925 12.9844 9.49925 13.0625C9.49925 13.1406 9.51463 13.2179 9.5445 13.29C9.57438 13.3621 9.61817 13.4277 9.67338 13.4829C9.72858 13.5381 9.79412 13.5819 9.86624 13.6117C9.93837 13.6416 10.0157 13.657 10.0938 13.657C10.1718 13.657 10.2491 13.6416 10.3213 13.6117C10.3934 13.5819 10.4589 13.5381 10.5141 13.4829L14.0766 9.92037C14.1319 9.86522 14.1758 9.7997 14.2057 9.72756C14.2357 9.65543 14.2511 9.5781 14.2511 9.5C14.2511 9.4219 14.2357 9.34457 14.2057 9.27244C14.1758 9.2003 14.1319 9.13478 14.0766 9.07963L10.5141 5.51713C10.4589 5.46192 10.3934 5.41813 10.3213 5.38825C10.2491 5.35838 10.1718 5.343 10.0938 5.343C10.0157 5.343 9.93837 5.35838 9.86624 5.38825C9.79412 5.41813 9.72858 5.46192 9.67338 5.51713C9.61817 5.57233 9.57438 5.63787 9.5445 5.70999C9.51463 5.78212 9.49925 5.85943 9.49925 5.9375C9.49925 6.01557 9.51463 6.09288 9.5445 6.16501C9.57438 6.23713 9.61817 6.30267 9.67338 6.35787L12.2229 8.90625H5.34375Z" fill="#FCFFFC"/>
</svg>
