<svg width="43" height="44" viewBox="0 0 43 44" fill="none" xmlns="http://www.w3.org/2000/svg">
<path d="M3.62296 15.9655H38.1585M3.62296 15.9655C2.12533 16.6485 1.67614 17.2494 1.5246 18.681V34.8017M3.62296 15.9655C4.10674 14.2869 4.47983 12.6193 4.82991 11.0517M10.9406 2.027H31.5548C34.5548 2.15736 35.8124 5.31726 37.116 11.0517M10.9406 2.027C6.92806 1.62465 6.00956 5.7698 4.82991 11.0517M10.9406 2.027C6.93514 1.62536 6.01281 5.75518 4.83616 11.0238L4.82991 11.0517M38.1585 15.9655C40.071 16.3844 40.6025 16.983 40.6066 18.681V34.8017M38.1585 15.9655C37.7878 14.1633 37.4504 12.5228 37.116 11.0517M9.78689 34.8017V39.8017C9.77429 41.2519 9.45716 41.7428 8.30055 42H3.62296C2.0929 42 1.56358 41.668 1.5246 39.8017V34.8017M9.78689 34.8017H1.5246M9.78689 34.8017H32.1694M32.1694 34.8017V39.8017C32.3719 40.917 32.3669 41.7226 33.6995 42H38.1585C39.5137 42 40.6066 41.2241 40.6066 39.8017V34.8017M32.1694 34.8017H40.6066M37.116 11.0517L40.6066 8.5M4.82991 11.0517L1.52465 8.5M9.78689 23.3147H12.6284L10.9406 24.5431M31.2951 24.5431L29.5902 23.3147H32.1694M14.3333 28.0776C19.8213 29.4351 22.4078 29.4287 28.0164 28.0776" stroke="#1D3218" stroke-width="3"/>
</svg>
