<svg width="59" height="59" viewBox="0 0 59 59" fill="none" xmlns="http://www.w3.org/2000/svg">
<g clip-path="url(#clip0_71_484)">
<path d="M30.7906 0.0491667C34.011 0 37.2069 0.0245833 40.4027 0C40.5994 3.76125 41.9515 7.59625 44.7048 10.2512C47.4581 12.98 51.3423 14.2337 55.1281 14.6517V24.5587C51.5881 24.4358 48.0235 23.6983 44.8031 22.1742C43.4019 21.535 42.099 20.7237 40.8206 19.8879C40.796 27.0662 40.8452 34.2446 40.7715 41.3983C40.5748 44.84 39.444 48.2571 37.4527 51.0842C34.2323 55.8042 28.6519 58.8771 22.924 58.9754C19.4085 59.1721 15.8931 58.2133 12.894 56.4433C7.92813 53.5179 4.43729 48.1587 3.92104 42.4062C3.87188 41.1771 3.84729 39.9479 3.89646 38.7433C4.33896 34.0725 6.64979 29.5983 10.239 26.55C14.3198 23.01 20.0231 21.3137 25.3577 22.3217C25.4069 25.96 25.2594 29.5983 25.2594 33.2367C22.8256 32.45 19.974 32.6712 17.8352 34.1462C16.2865 35.1542 15.1065 36.7029 14.4919 38.4483C13.9756 39.7021 14.1231 41.0787 14.1477 42.4062C14.7377 46.4379 18.6219 49.8304 22.7519 49.4617C25.5052 49.4371 28.1356 47.8392 29.5615 45.5037C30.0285 44.6925 30.5448 43.8567 30.5694 42.8979C30.8152 38.4975 30.7169 34.1217 30.7415 29.7212C30.766 19.8142 30.7169 9.93167 30.7906 0.0491667Z" fill="#1D3218"/>
</g>
<rect x="2" y="2" width="55" height="55" rx="2" stroke="#1D3218" stroke-width="4"/>
<defs>
<clipPath id="clip0_71_484">
<rect width="59" height="59" rx="4" fill="white"/>
</clipPath>
</defs>
</svg>
